<?xml version="1.0" encoding="UTF-8"?>
<svg width="24px" height="24px" viewBox="0 0 24 24" version="1.1" xmlns="http://www.w3.org/2000/svg" xmlns:xlink="http://www.w3.org/1999/xlink">
    <!-- Generator: Sketch 42 (36781) - http://www.bohemiancoding.com/sketch -->
    <title>Group</title>
    <desc>Created with Sketch.</desc>
    <defs></defs>
    <g id="Welcome" stroke="none" stroke-width="1" fill="none" fill-rule="evenodd">
        <g id="home" transform="translate(-966.000000, -17.000000)" fill-rule="nonzero" fill="#2962FF">
            <g id="Group" transform="translate(966.000000, 17.000000)">
                <path d="M23.94984,22.0645333 L18.1487733,16.2634667 C21.1863733,12.3 20.89464,6.58746667 17.2696,2.9624 C15.3591733,1.05197333 12.8186667,0 10.1165333,0 C7.4144,0 4.87386667,1.05208 2.96346667,2.9624 C1.052,4.87386667 0,7.4144 0,10.1165333 C0,12.8186667 1.05208,15.3592 2.96346667,17.2696 C4.87389333,19.1800267 7.4144,20.2330667 10.1165333,20.2330667 C12.3686133,20.2330667 14.5082667,19.4997333 16.2645333,18.1497333 L22.0645333,23.9497333 L23.94984,22.0645333 Z M10.1165067,17.5666667 C8.12693333,17.5666667 6.25597333,16.79168 4.84877333,15.3843733 C3.44149333,13.9781333 2.66648,12.10624 2.66648,10.11664 C2.66648,8.12704 3.44146667,6.25610667 4.84877333,4.84890667 C6.25608,3.44170667 8.12690667,2.66661333 10.1165067,2.66661333 C12.10712,2.66661333 13.97784,3.4416 15.3853067,4.84890667 C18.29064,7.75424 18.29064,12.4801067 15.3863485,15.38544 C13.9780285,16.79168 12.1060819,17.5666933 10.1164819,17.5666933 L10.1165067,17.5666667 Z" id="Shape"></path>
            </g>
        </g>
    </g>
</svg>